# xmcd
#
# Track frame offsets:
#	150
#	19875
#	37482
#	55272
#	78400
#	94375
#	108717
#	127345
#	148717
#	165962
#	183805
#	199290
#	216227
#	231197
#	248625
#
# Disc length: 3532 seconds
#
# Revision: 0
# Processed by: cddbd v1.4PL0 Copyright (c) Steve Scherf et al.
# Submitted via: audiograbber 1.82.02
#
DISCID=e00dca0f
DTITLE=Salt 'N' Pepa - Very Necessary
DYEAR=1992
DGENRE=Hip-Hop
TTITLE0=Groove Me
TTITLE1=No One Does It Better
TTITLE2=Somebody's Gettin' On My Nerves
TTITLE3=Whatta Man
TTITLE4=None Of Your Business
TTITLE5=Step
TTITLE6=Shoop
TTITLE7=Heaven Or Hell
TTITLE8=Big Shot
TTITLE9=Sexy Noises Turn Me On
TTITLE10=Somma Time Man
TTITLE11=Break Of Dawn
TTITLE12=PSA We Talk
TTITLE13=Shoop (Danny D's Radio Mix)
TTITLE14=Start Me Up
EXTD=
EXTT0=
EXTT1=
EXTT2=
EXTT3=
EXTT4=
EXTT5=
EXTT6=
EXTT7=
EXTT8=
EXTT9=
EXTT10=
EXTT11=
EXTT12=
EXTT13=
EXTT14=
PLAYORDER=
